<svg xmlns="http://www.w3.org/2000/svg" viewBox="0 0 32 32" fill="none">
  <!-- Indigo rounded background -->
  <rect width="32" height="32" rx="7" fill="#4338ca"/>

  <!-- Receipt body -->
  <path d="M9 5h14a1 1 0 0 1 1 1v17.5l-2.5-1.75-2.5 1.75-2.5-1.75-2.5 1.75-2.5-1.75-2.5 1.75V6a1 1 0 0 1 1-1z"
        fill="white" fill-opacity="0.12"/>
  <path d="M9 5h14a1 1 0 0 1 1 1v17.5l-2.5-1.75-2.5 1.75-2.5-1.75-2.5 1.75-2.5-1.75-2.5 1.75V6a1 1 0 0 1 1-1z"
        stroke="white" stroke-width="1.5" stroke-linejoin="round"/>

  <!-- Entry lines -->
  <line x1="12" y1="10.5" x2="20" y2="10.5" stroke="white" stroke-width="1.5" stroke-linecap="round" opacity="0.9"/>
  <line x1="12" y1="14" x2="17.5" y2="14" stroke="white" stroke-width="1.5" stroke-linecap="round" opacity="0.65"/>
  <line x1="12" y1="17.5" x2="20" y2="17.5" stroke="white" stroke-width="1.5" stroke-linecap="round" opacity="0.65"/>
</svg>
